<?xml version="1.0" encoding="utf-8"?>
<!-- Generator: Adobe Illustrator 21.0.2, SVG Export Plug-In . SVG Version: 6.00 Build 0)  -->
<svg version="1.1" id="Layer_1" xmlns="http://www.w3.org/2000/svg" xmlns:xlink="http://www.w3.org/1999/xlink" x="0px" y="0px"
	 viewBox="0 0 100 100" style="enable-background:new 0 0 100 100;" xml:space="preserve">
<g>
	<g>
		<path d="M99,3.3c-3.3-1.5-7-2.3-10.8-2.3c-14.8,0-26.8,12-26.8,26.8s12,26.8,26.8,26.8c3.9,0,7.5-0.8,10.8-2.3
			C79.7,35.7,79.7,19.4,99,3.3z"/>
	</g>
</g>
<g>
	<g>
		<path d="M64.7,51.4c-3-3-5.4-6.6-7.1-10.6c-1.7-4.1-2.6-8.5-2.6-12.9c0-0.3,0-0.6,0-0.9c-2.9-1-6-1.5-9.2-1.5
			C29.9,25.5,17,38.4,17,54.2s12.9,28.7,28.7,28.7c14.5,0,26.6-10.9,28.5-24.9C70.7,56.4,67.4,54.2,64.7,51.4z M48.9,56.3l-17.4,7.2
			l-2.4-5.9l13.4-5.6V34.1h6.4V56.3z"/>
	</g>
</g>
<g>
	<g>
		<path d="M88.2,61.1c-2.7,0-5.3-0.3-7.8-0.9c-2.9,16.5-17.3,29.1-34.6,29.1c-19.4,0-35.1-15.8-35.1-35.1s15.8-35.1,35.1-35.1
			c3.5,0,6.8,0.5,10,1.5c0.4-1.9,1-3.8,1.8-5.6c0.5-1.2,1.1-2.3,1.7-3.4c-4.3-1.3-8.8-2.1-13.5-2.1C21.1,9.5,1,29.5,1,54.2
			s20.1,44.7,44.7,44.7c22.3,0,40.9-16.4,44.2-37.8C89.3,61.1,88.7,61.1,88.2,61.1z"/>
	</g>
</g>
</svg>
