<?xml version="1.0" encoding="utf-8"?>
<!-- Generator: Adobe Illustrator 21.0.2, SVG Export Plug-In . SVG Version: 6.00 Build 0)  -->
<svg version="1.1" id="Layer_1" xmlns="http://www.w3.org/2000/svg" xmlns:xlink="http://www.w3.org/1999/xlink" x="0px" y="0px"
	 viewBox="0 0 100 100" style="enable-background:new 0 0 100 100;" xml:space="preserve">
<g>
	<g>
		<path d="M59.8,54.2v2.5h6.5v35.2c0,3.9,3.2,7.1,7.1,7.1h0c3.9,0,7.1-3.2,7.1-7.1V1C67.2,15.5,59.8,34.5,59.8,54.2z"/>
	</g>
</g>
<g>
	<g>
		<path d="M39.3,1v32.5h-4.1V1h-4.9v32.5h-4.1V1h-6.8v28.8c0,5.2,2.5,10.2,6.8,13.2v49.5c0,3.6,2.9,6.6,6.6,6.6
			c3.6,0,6.6-2.9,6.6-6.6V43c4.3-3,6.8-8,6.8-13.2V1H39.3z"/>
	</g>
</g>
</svg>
