<?xml version="1.0" encoding="utf-8"?>
<!-- Generator: Adobe Illustrator 21.0.2, SVG Export Plug-In . SVG Version: 6.00 Build 0)  -->
<svg version="1.1" id="Capa_1" xmlns="http://www.w3.org/2000/svg" xmlns:xlink="http://www.w3.org/1999/xlink" x="0px" y="0px"
	 viewBox="0 0 100 100" style="enable-background:new 0 0 100 100;" xml:space="preserve">
<style type="text/css">
	.st0{fill:#010002;}
</style>
<g>
	<g>
		<path class="st0" d="M79.3,75.3l1.7-1.7C74.4,67.7,65.7,58,58.4,50.8c0.9-1.8,0.4-4.1-1.4-5.2c-8-5.3-11-9.1-14.5-13.5
			c-1.6-2-3.2-4-5.3-6.3c-0.2-0.2-0.4-0.4-0.6-0.6c-0.8-0.8-1.7-1.4-2.7-1.9c0,0-1-0.6-2.2-0.8c-1.1-0.2-2.4-0.2-2.4-0.2h0
			c-0.1,0-0.3,0-0.4,0c-0.1,0-0.2,0-0.3,0c-0.2,0-0.3,0-0.5,0.1c-0.2,0-0.3,0-0.5,0.1c-8,1.3-16.4,7.5-25.7,19.1
			c-1.4,1.8-1.1,4.3,0.6,5.8c0.8,0.6,1.7,0.9,2.6,0.9c1.2,0,2.4-0.5,3.2-1.5c4-5,7.5-8.5,10.5-10.9l-3.4,15.7
			c-0.5,2.3,0.1,4.3,1.4,6l-1.1,16.2L9,91.1c-1,2.7,0.3,5.7,3,6.8c0.6,0.2,1.3,0.4,1.9,0.4c2.1,0,4.1-1.3,4.9-3.3l7-18.2
			c0.2-0.5,0.3-1,0.3-1.5l0.6-9.4l6.2,9.8l5.1,18.8c0.6,2.3,2.7,3.9,5,3.9c0.4,0,0.9-0.1,1.3-0.2c2.8-0.7,4.4-3.6,3.7-6.4l-5.3-19.6
			c-0.1-0.5-0.3-1-0.6-1.4l-8.5-13.4c0.3-0.5,0.5-1.1,0.6-1.8l3.5-16.1c3.2,4,7,7.9,14.6,13c0.7,0.5,1.5,0.7,2.3,0.7
			c0.8,0,1.6-0.3,2.2-0.7C63.8,59.1,72.4,69.2,79.3,75.3z"/>
		<circle class="st0" cx="36.3" cy="12.3" r="10.6"/>
		<path class="st0" d="M68.5,76.5l-3.6-2.9c-0.8-0.7-2-0.5-2.7,0.3c-0.7,0.8-0.5,2,0.3,2.7l3.7,3v8.1c0,0,0,0.1,0,0.1L63,94.1
			c-0.5,0.9-0.1,2.1,0.8,2.6c0.3,0.1,0.6,0.2,0.9,0.2c0.7,0,1.4-0.4,1.7-1l3.3-6.3l3.7,6.4c0.4,0.6,1,1,1.7,1c0.3,0,0.7-0.1,1-0.3
			c0.9-0.5,1.2-1.7,0.7-2.6l-3.2-5.6h11.9V95c0,1.1,0.9,1.9,1.9,1.9c1.1,0,1.9-0.9,1.9-1.9v-7.2c0,0,0-0.1,0-0.1v-6.1l-8.9-5.1
			L68.5,76.5L68.5,76.5z"/>
		<path class="st0" d="M94.2,72.6c-1.2-1.1-1.6-2.4-2.9-3.4c-0.2-0.2-0.5-0.3-0.7-0.5c-0.1-0.1-0.2-0.2-0.2-0.3
			c0.1-0.5,0.1-1.1,0.2-1.6c0.1-1-0.2-1.9-1-2.5c-0.3-0.2-1.9-1-2.6,1.6c-0.1,0.6-0.3,1.1-0.6,1.6c-1,1.9-2.2,3.6-3.4,5.4
			c-0.5,0.8-1.1,1.6-1.6,2.4l8.4,4.8c0,0,1.6-1.8,1.8-1.7c0.3,0.1,0.6,0.3,0.9,0.4c0.9,0.4,1.9,0.6,2.9,0.5c1.7-0.1,3.5-1,3.7-3.1
			C99.1,74.4,94.6,73,94.2,72.6z"/>
	</g>
</g>
</svg>
